<svg xmlns="http://www.w3.org/2000/svg" viewBox="0 0 87.3 114.47"><defs><style>.cls-1{fill:#BFBADD;}</style></defs><g id="Layer_2" data-name="Layer 2"><g id="Layer_1-2" data-name="Layer 1"><path class="cls-1" d="M51.19,68.25a5.34,5.34,0,0,0-.55-.42,7.72,7.72,0,0,0-4.41-1.14,7.08,7.08,0,0,0-3.69.89A9,9,0,0,0,39.94,70a4.61,4.61,0,0,0-2.24-2.53,7.32,7.32,0,0,0-3.4-.82,8,8,0,0,0-2.13.26,6.77,6.77,0,0,0-1.66.67,6,6,0,0,0-1.3,1.06A10.64,10.64,0,0,0,28.12,70H28v-2.8H23.81V87.33h4.43V75.4a6.38,6.38,0,0,1,.36-2.22,5.24,5.24,0,0,1,1-1.63,4,4,0,0,1,1.4-1,4.11,4.11,0,0,1,1.65-.35,3.2,3.2,0,0,1,2.78,1.07,5.43,5.43,0,0,1,.76,3.17v12.9H40.6V75.55a6.62,6.62,0,0,1,1-4,3.75,3.75,0,0,1,3.26-1.4,4.34,4.34,0,0,1,2,.39A2.44,2.44,0,0,1,48,71.69a4.77,4.77,0,0,1,.45,1.7c0,.67.07,1.4.07,2.2V87.33H53V73.46Q53,69.8,51.19,68.25Z"/><path class="cls-1" d="M79.45,70.68A4.79,4.79,0,0,0,78,68.25a7.25,7.25,0,0,0-5-1.56,7.08,7.08,0,0,0-3.69.89A9,9,0,0,0,66.77,70a4.61,4.61,0,0,0-2.24-2.53,7.29,7.29,0,0,0-3.4-.82A8.07,8.07,0,0,0,59,67a6.77,6.77,0,0,0-1.66.67A6,6,0,0,0,56,68.68,10.64,10.64,0,0,0,55,70h-.11v-2.8h-4.2V87.33h4.43V75.4a6.15,6.15,0,0,1,.37-2.22,5.22,5.22,0,0,1,1-1.63,4.13,4.13,0,0,1,3.05-1.36,3.2,3.2,0,0,1,2.78,1.07A5.43,5.43,0,0,1,63,74.43v12.9h4.43V75.55a6.62,6.62,0,0,1,1-4,3.75,3.75,0,0,1,3.26-1.4,4.34,4.34,0,0,1,2,.39,2.44,2.44,0,0,1,1.11,1.11,4.39,4.39,0,0,1,.45,1.7c0,.67.08,1.4.08,2.2V87.33h4.43V73.46A10,10,0,0,0,79.45,70.68Z"/><path class="cls-1" d="M22.18,103.36v-5l-1.84,5h-.95l-1.83-5v5.12H16.31V96.28h1.74l1.86,5,1.87-5h1.64v7.08Z"/><path class="cls-1" d="M25,97.45V96.16h1.34v1.29Zm0,5.91v-5.2h1.27v5.2Z"/><path class="cls-1" d="M31.44,103.36,30,101.09l-.83.9v1.37H27.9V96.15h1.25v4.12l2-2.11h1.57l-1.86,2,2.06,3.19Z"/><path class="cls-1" d="M38,101.15H34.48a1.37,1.37,0,0,0,.38,1,1.1,1.1,0,0,0,.77.32,1,1,0,0,0,.76-.25,1,1,0,0,0,.25-.44h1.2a2.06,2.06,0,0,1-.44,1,2.23,2.23,0,0,1-1.75.73,2.27,2.27,0,0,1-1.64-.64,2.82,2.82,0,0,1-.8-2.08A2.88,2.88,0,0,1,34,98.7,2.26,2.26,0,0,1,35.62,98a2.19,2.19,0,0,1,1.9.95A2.94,2.94,0,0,1,38,100.8S38,101,38,101.15ZM36.4,99.33a1,1,0,0,0-.79-.29,1.06,1.06,0,0,0-.87.39,1.27,1.27,0,0,0-.27.81h2.25A1.37,1.37,0,0,0,36.4,99.33Z"/><path class="cls-1" d="M47.15,103.36v-5l-1.84,5h-1l-1.83-5v5.12H41.28V96.28H43l1.86,5,1.87-5h1.64v7.08Z"/><path class="cls-1" d="M54.4,101.15H50.92a1.37,1.37,0,0,0,.38,1,1.1,1.1,0,0,0,.77.32,1,1,0,0,0,.76-.25,1,1,0,0,0,.25-.44h1.2a2.06,2.06,0,0,1-.44,1,2.23,2.23,0,0,1-1.75.73,2.27,2.27,0,0,1-1.64-.64,2.82,2.82,0,0,1-.8-2.08,2.88,2.88,0,0,1,.75-2.07A2.26,2.26,0,0,1,52.06,98,2.19,2.19,0,0,1,54,99a2.94,2.94,0,0,1,.45,1.81S54.4,101,54.4,101.15Zm-1.56-1.82a1,1,0,0,0-.79-.29,1.06,1.06,0,0,0-.87.39,1.27,1.27,0,0,0-.27.81h2.25A1.37,1.37,0,0,0,52.84,99.33Z"/><path class="cls-1" d="M59.38,102.65a2.27,2.27,0,0,1-1.78.82,2.37,2.37,0,0,1-1.81-.82,3.45,3.45,0,0,1,0-3.8A2.37,2.37,0,0,1,57.6,98a2.27,2.27,0,0,1,1.78.81,2,2,0,0,1,.4,1.14H58.55a1,1,0,0,0-.15-.49.91.91,0,0,0-.8-.39,1,1,0,0,0-.76.32,1.94,1.94,0,0,0-.35,1.32,1.91,1.91,0,0,0,.35,1.31,1,1,0,0,0,.76.33.91.91,0,0,0,.8-.39,1,1,0,0,0,.15-.48h1.23A2,2,0,0,1,59.38,102.65Z"/><path class="cls-1" d="M64,103.36v-3.21c0-.59-.2-1-.86-1s-1.07.81-1.07,1.44v2.74H60.84V96.15h1.25v2.57A1.74,1.74,0,0,1,63.51,98a1.7,1.7,0,0,1,1.76,1.86v3.46Z"/><path class="cls-1" d="M71.14,101.15H67.66a1.37,1.37,0,0,0,.38,1,1.1,1.1,0,0,0,.77.32,1,1,0,0,0,.76-.25,1,1,0,0,0,.25-.44H71a2.06,2.06,0,0,1-.44,1,2.23,2.23,0,0,1-1.75.73,2.27,2.27,0,0,1-1.64-.64,2.82,2.82,0,0,1-.8-2.08,2.88,2.88,0,0,1,.75-2.07A2.26,2.26,0,0,1,68.8,98a2.19,2.19,0,0,1,1.9.95,2.94,2.94,0,0,1,.45,1.81S71.14,101,71.14,101.15Zm-1.56-1.82a1,1,0,0,0-.79-.29,1.06,1.06,0,0,0-.87.39,1.27,1.27,0,0,0-.27.81H69.9A1.37,1.37,0,0,0,69.58,99.33Z"/><path class="cls-1" d="M78.45,103.36v-3.23c0-.64-.17-1-.8-1s-1,.74-1,1.39v2.84H75.39v-3.23c0-.64-.17-1-.8-1s-1,.74-1,1.39v2.84H72.32v-5.2h1l.1.69A1.68,1.68,0,0,1,74.94,98a1.54,1.54,0,0,1,1.49.85A1.71,1.71,0,0,1,78,98a1.61,1.61,0,0,1,1.69,1.81v3.51Z"/><path class="cls-1" d="M41.67,114.36l-.94-2.14H39.47v2.14h-1v-5.67h2.39a1.75,1.75,0,0,1,2,1.76,1.62,1.62,0,0,1-1,1.59l1,2.32Zm-.84-4.76H39.47v1.69h1.37c.59,0,.92-.3.92-.84A.86.86,0,0,0,40.83,109.6Z"/><path class="cls-1" d="M47.1,112.6H44.31a1.13,1.13,0,0,0,.31.81.85.85,0,0,0,.61.26.79.79,0,0,0,.61-.2.75.75,0,0,0,.2-.35h1a1.6,1.6,0,0,1-.35.76,1.93,1.93,0,0,1-2.71.07,2.21,2.21,0,0,1-.64-1.66,2.33,2.33,0,0,1,.6-1.66,1.8,1.8,0,0,1,1.32-.53,1.75,1.75,0,0,1,1.52.77,2.27,2.27,0,0,1,.36,1.45Zm-1.25-1.46a.85.85,0,0,0-.63-.24.87.87,0,0,0-.7.32,1,1,0,0,0-.21.65h1.8A1.11,1.11,0,0,0,45.85,111.14Z"/><path class="cls-1" d="M51.17,114.43a.67.67,0,0,1-.71-.59,1.45,1.45,0,0,1-1.26.63,1.31,1.31,0,1,1-.09-2.61l1.22-.09v-.25c0-.4-.14-.66-.71-.66s-.73.21-.76.59h-1c.05-.93.8-1.35,1.72-1.35a1.49,1.49,0,0,1,1.56.85,2.17,2.17,0,0,1,.12.84v1.54c0,.19.07.26.24.26h.12v.74A1,1,0,0,1,51.17,114.43Zm-.84-1.91-1.06.08a.58.58,0,0,0-.6.54.55.55,0,0,0,.6.52.94.94,0,0,0,1.06-1Z"/><path class="cls-1" d="M53.65,114.41a1,1,0,0,1-1.14-1.12v-4.71h1v4.54c0,.24.06.4.4.4h.17v.84A1.34,1.34,0,0,1,53.65,114.41Z"/><path class="cls-1" d="M56.67,114.36v-5.67h4v.94h-3V111h2.64v.93H57.7v1.55h3v.93Z"/><path class="cls-1" d="M64.52,114a2,2,0,0,1-1.42.48,1.91,1.91,0,0,1-1.35-.48,1.4,1.4,0,0,1-.44-1h.94a.72.72,0,0,0,.22.49.94.94,0,0,0,.64.18c.33,0,.84-.07.84-.53a.44.44,0,0,0-.41-.44c-.37,0-.79-.08-1.15-.16a1.15,1.15,0,0,1-1-1.11,1.16,1.16,0,0,1,.42-.93,1.86,1.86,0,0,1,1.26-.42,1.8,1.8,0,0,1,1.31.49,1.3,1.3,0,0,1,.36.85h-1a.56.56,0,0,0-.17-.39.79.79,0,0,0-.54-.19,1.09,1.09,0,0,0-.43.06.49.49,0,0,0-.32.44c0,.3.25.39.48.42l.89.12a1.2,1.2,0,0,1,1.13,1.17A1.23,1.23,0,0,1,64.52,114Z"/><path class="cls-1" d="M67.27,114.42A1.14,1.14,0,0,1,66,113.14V111h-.76v-.83H66v-1l1-.25v1.3h1V111H67v2c0,.32.14.46.46.46a5.36,5.36,0,0,0,.65,0v.84A3.49,3.49,0,0,1,67.27,114.42Z"/><path class="cls-1" d="M72.11,114.43a.66.66,0,0,1-.71-.59,1.45,1.45,0,0,1-1.26.63,1.31,1.31,0,1,1-.1-2.61l1.23-.09v-.25c0-.4-.14-.66-.71-.66s-.73.21-.76.59h-1c.06-.93.8-1.35,1.73-1.35a1.5,1.5,0,0,1,1.56.85,2.38,2.38,0,0,1,.12.84v1.54c0,.19.06.26.23.26h.13v.74A1,1,0,0,1,72.11,114.43Zm-.84-1.91-1.06.08a.58.58,0,0,0-.6.54.55.55,0,0,0,.59.52.94.94,0,0,0,1.07-1Z"/><path class="cls-1" d="M74.93,114.42a1.14,1.14,0,0,1-1.26-1.28V111h-.76v-.83h.76v-1l1-.25v1.3h1V111h-1v2c0,.32.15.46.47.46a5.21,5.21,0,0,0,.64,0v.84A3.35,3.35,0,0,1,74.93,114.42Z"/><path class="cls-1" d="M80.06,112.6H77.28a1.13,1.13,0,0,0,.31.81.85.85,0,0,0,.61.26.79.79,0,0,0,.61-.2.75.75,0,0,0,.2-.35h1a1.7,1.7,0,0,1-.35.76,1.93,1.93,0,0,1-2.71.07,2.21,2.21,0,0,1-.64-1.66,2.33,2.33,0,0,1,.6-1.66,1.8,1.8,0,0,1,1.32-.53,1.75,1.75,0,0,1,1.52.77,2.27,2.27,0,0,1,.36,1.45S80.06,112.51,80.06,112.6Zm-1.24-1.46a.87.87,0,0,0-.63-.24.85.85,0,0,0-.7.32,1,1,0,0,0-.21.65h1.79A1.06,1.06,0,0,0,78.82,111.14Z"/><polygon class="cls-1" points="0 87.48 0 53.3 36.15 22.39 62.39 30.79 62.39 18.84 79.58 18.84 79.58 39.43 75.91 38.39 75.91 22.51 66.06 22.51 66.06 35.82 36.98 26.51 3.67 54.99 3.67 83.8 25.94 83.77 25.94 87.44 0 87.48"/><path class="cls-1" d="M74,14.11l-3.47-.47c.43-3.17,1.09-7.95,4.4-10.88A11.38,11.38,0,0,1,81.09.13a23.36,23.36,0,0,1,6.21.2l-.48,3.46a20.5,20.5,0,0,0-5.29-.19,8.09,8.09,0,0,0-4.31,1.78C75.06,7.29,74.45,10.6,74,14.11Z"/></g></g></svg>